{
  "accessors": [
    {
      "bufferView": 1,
      "componentType": 5126,
      "count": 65532,
      "max": [
        1469.8206787109375,
        1010.0003662109375,
        2303.345458984375
      ],
      "min": [
        36.8123779296875,
        13.540771484375,
        0
      ],
      "type": "VEC3"
    },
    {
      "bufferView": 1,
      "byteOffset": 786384,
      "componentType": 5126,
      "count": 65532,
      "max": [
        0.99998831748962402,
        0.99998390674591064,
        0.99999982118606567
      ],
      "min": [
        -0.99997013807296753,
        -0.99999123811721802,
        -0.99999940395355225
      ],
      "type": "VEC3"
    },
    {
      "bufferView": 0,
      "componentType": 5125,
      "count": 304776,
      "max": [
        65531
      ],
      "min": [
        0
      ],
      "type": "SCALAR"
    },
    {
      "bufferView": 1,
      "byteOffset": 1572768,
      "componentType": 5126,
      "count": 65532,
      "max": [
        1453.1280517578125,
        1012.2980346679688,
        2324.2783203125
      ],
      "min": [
        0,
        0,
        0.052129030227661133
      ],
      "type": "VEC3"
    },
    {
      "bufferView": 1,
      "byteOffset": 2359152,
      "componentType": 5126,
      "count": 65532,
      "max": [
        0.99996405839920044,
        0.99998390674591064,
        0.99999988079071045
      ],
      "min": [
        -0.99999320507049561,
        -0.99999922513961792,
        -0.99999690055847168
      ],
      "type": "VEC3"
    },
    {
      "bufferView": 0,
      "byteOffset": 1219104,
      "componentType": 5125,
      "count": 312867,
      "max": [
        65531
      ],
      "min": [
        0
      ],
      "type": "SCALAR"
    },
    {
      "bufferView": 1,
      "byteOffset": 3145536,
      "componentType": 5126,
      "count": 65532,
      "max": [
        1469.8206787109375,
        1012.2980346679688,
        2319.331787109375
      ],
      "min": [
        0,
        4.37689208984375,
        0
      ],
      "type": "VEC3"
    },
    {
      "bufferView": 1,
      "byteOffset": 3931920,
      "componentType": 5126,
      "count": 65532,
      "max": [
        0.99998539686203003,
        0.99995607137680054,
        0.9999968409538269
      ],
      "min": [
        -0.99999058246612549,
        -0.99997705221176147,
        -0.99999815225601196
      ],
      "type": "VEC3"
    },
    {
      "bufferView": 0,
      "byteOffset": 2470572,
      "componentType": 5125,
      "count": 245133,
      "max": [
        65531
      ],
      "min": [
        0
      ],
      "type": "SCALAR"
    },
    {
      "bufferView": 1,
      "byteOffset": 4718304,
      "componentType": 5126,
      "count": 7259,
      "max": [
        1457.5477294921875,
        1007.641357421875,
        2319.555419921875
      ],
      "min": [
        16.2095947265625,
        4.9583740234375,
        0.052129030227661133
      ],
      "type": "VEC3"
    },
    {
      "bufferView": 1,
      "byteOffset": 4805412,
      "componentType": 5126,
      "count": 7259,
      "max": [
        0.99988353252410889,
        0.99946123361587524,
        0.99999696016311646
      ],
      "min": [
        -0.99996453523635864,
        -0.99981206655502319,
        -0.99999064207077026
      ],
      "type": "VEC3"
    },
    {
      "bufferView": 0,
      "byteOffset": 3451104,
      "componentType": 5125,
      "count": 8811,
      "max": [
        7258
      ],
      "min": [
        0
      ],
      "type": "SCALAR"
    }
  ],
  "asset": {
    "extras": {
      "author": "SMK – National Gallery of Denmark (https://sketchfab.com/smkmuseum)",
      "license": "CC0-1.0 (http://creativecommons.org/publicdomain/zero/1.0/)",
      "source": "https://sketchfab.com/3d-models/apollo-belvedere-fe5c0cffdc2a4f3985872212c692af0c",
      "title": "Apollo Belvedere"
    },
    "generator": "Sketchfab-7.80.0",
    "version": "2.0"
  },
  "bufferViews": [
    {
      "buffer": 0,
      "byteLength": 3486348,
      "byteOffset": 0,
      "name": "floatBufferViews",
      "target": 34963
    },
    {
      "buffer": 0,
      "byteLength": 4892520,
      "byteOffset": 3486348,
      "byteStride": 12,
      "name": "floatBufferViews",
      "target": 34962
    }
  ],
  "buffers": [
    {
      "byteLength": 8378868,
      "uri": "scene.bin"
    }
  ],
  "materials": [
    {
      "doubleSided": true,
      "emissiveFactor": [
        0,
        0,
        0
      ],
      "name": "default",
      "pbrMetallicRoughness": {
        "baseColorFactor": [
          1,
          1,
          1,
          1
        ],
        "metallicFactor": 0,
        "roughnessFactor": 0.59999999999999998
      }
    }
  ],
  "meshes": [
    {
      "primitives": [
        {
          "attributes": {
            "NORMAL": 1,
            "POSITION": 0
          },
          "indices": 2,
          "material": 0,
          "mode": 4
        }
      ]
    },
    {
      "primitives": [
        {
          "attributes": {
            "NORMAL": 4,
            "POSITION": 3
          },
          "indices": 5,
          "material": 0,
          "mode": 4
        }
      ]
    },
    {
      "primitives": [
        {
          "attributes": {
            "NORMAL": 7,
            "POSITION": 6
          },
          "indices": 8,
          "material": 0,
          "mode": 4
        }
      ]
    },
    {
      "primitives": [
        {
          "attributes": {
            "NORMAL": 10,
            "POSITION": 9
          },
          "indices": 11,
          "material": 0,
          "mode": 4
        }
      ]
    }
  ],
  "nodes": [
    {
      "children": [
        1
      ],
      "name": "RootNode (gltf orientation matrix)",
      "rotation": [
        -0.70710678118654746,
        -0,
        -0,
        0.70710678118654757
      ]
    },
    {
      "children": [
        2
      ],
      "name": "RootNode (model correction matrix)"
    },
    {
      "children": [
        3
      ],
      "matrix": [
        1,
        0,
        0,
        0,
        0,
        1,
        0,
        0,
        0,
        0,
        1,
        0,
        -552.19195556640625,
        -466.31982421875,
        -0.90010899305343628,
        1
      ],
      "name": "Apollo_Belvedere_SMK_KAS353_10pct.obj.cleaner.gles"
    },
    {
      "children": [
        4,
        5,
        6,
        7
      ],
      "name": ""
    },
    {
      "mesh": 0,
      "name": ""
    },
    {
      "mesh": 1,
      "name": ""
    },
    {
      "mesh": 2,
      "name": ""
    },
    {
      "mesh": 3,
      "name": ""
    }
  ],
  "scene": 0,
  "scenes": [
    {
      "name": "OSG_Scene",
      "nodes": [
        0
      ]
    }
  ]
}

